REM GENRE Soundtrack
REM DATE 2021
REM DISCID 2011FICDKE
REM COMMENT ExactAudioCopy v1.0b2
PERFORMER "愛玩魂斗羅的狂人"
TITLE "Good Morning 精选集"
FILE "CDImage.flac" WAVE
  TRACK 01 AUDIO
    TITLE "さよなら"
    INDEX 01 00:00:00
  TRACK 02 AUDIO
    TITLE "歌"
    CUSTOM CUSTOMVALUE
    INDEX 00 03:20:54
    INDEX 01 03:23:16
  TRACK 03 AUDIO
    TITLE "丧心病狂"
    INDEX 00 06:16:15
    INDEX 01 06:17:31
  TRACK 04 AUDIO
    TITLE "～看不到看不到看不到！"
    INDEX 00 12:38:49
    INDEX 01 12:42:24
